<?xml version="1.0" encoding="UTF-8"?>
<svg width="24" height="24" viewBox="0 0 24 24" fill="none" xmlns="http://www.w3.org/2000/svg">
  <path d="M12 2C14.717 2 15.056 2.01 16.122 2.06C17.187 2.11 17.912 2.277 18.55 2.525C19.21 2.78 19.766 3.123 20.339 3.696C20.911 4.268 21.256 4.825 21.512 5.486C21.772 6.124 21.938 6.85 21.988 7.915C22.038 8.98 22.05 9.32 22.05 12.037C22.05 14.754 22.038 15.094 21.988 16.159C21.938 17.224 21.772 17.95 21.524 18.588C21.27 19.248 20.926 19.805 20.354 20.377C19.782 20.949 19.225 21.294 18.564 21.55C17.926 21.81 17.2 21.976 16.135 22.026C15.07 22.076 14.73 22.088 12.013 22.088C9.29601 22.088 8.95601 22.076 7.89101 22.026C6.82601 21.976 6.10001 21.81 5.46201 21.562C4.80201 21.308 4.24501 20.964 3.67301 20.392C3.10101 19.82 2.75601 19.263 2.50001 18.602C2.24001 17.964 2.07401 17.238 2.02401 16.173C1.97401 15.108 1.96201 14.768 1.96201 12.051C1.96201 9.334 1.97401 8.994 2.02401 7.929C2.07401 6.864 2.24001 6.138 2.48801 5.5C2.74201 4.84 3.08601 4.283 3.65801 3.711C4.23001 3.139 4.78701 2.794 5.44801 2.538C6.08601 2.278 6.81201 2.112 7.87701 2.062C8.94201 2.012 9.28201 2 12 2ZM12 3.8C9.317 3.8 8.955 3.811 7.876 3.86C6.922 3.905 6.372 4.065 5.964 4.22C5.484 4.4 5.172 4.61 4.83 4.95C4.49 5.292 4.28 5.604 4.1 6.084C3.945 6.492 3.785 7.042 3.74 7.996C3.691 9.075 3.68 9.437 3.68 12.12C3.68 14.803 3.691 15.165 3.74 16.244C3.785 17.198 3.945 17.748 4.1 18.156C3.92 18.636 3.71 18.948 3.37 19.29C3.03 19.63 2.718 19.84 2.238 20.02C2.83 20.36 3.412 20.54 4.116 20.64C5.196 20.79 5.956 20.81 11.96 20.81C17.964 20.81 18.724 20.79 19.804 20.64C20.508 20.54 21.09 20.36 21.682 20.02C21.202 19.84 20.89 19.63 20.55 19.29C20.208 18.95 19.998 18.638 19.818 18.158C19.638 17.678 19.428 17.366 19.088 17.024C18.746 16.684 18.434 16.474 17.954 16.294C17.546 16.449 16.996 16.609 16.042 16.654C14.963 16.703 14.602 16.715 11.92 16.715C9.238 16.715 8.876 16.703 7.797 16.654C6.843 16.609 6.293 16.449 5.885 16.294C5.405 16.474 5.093 16.684 4.751 17.024C4.411 17.366 4.201 17.678 4.021 18.158C3.866 17.75 3.706 17.2 3.661 16.246C3.612 15.167 3.6 14.805 3.6 12.123C3.6 9.441 3.612 9.079 3.661 8C3.706 7.046 3.866 6.496 4.021 6.088C4.201 5.608 4.411 5.296 4.751 4.954C5.093 4.614 5.405 4.404 5.885 4.224C6.293 4.069 6.843 3.909 7.797 3.864C8.876 3.815 9.238 3.803 11.92 3.803L12 3.8Z" fill="#1976D2"/>
  <path d="M12 7C9.239 7 7 9.239 7 12C7 14.761 9.239 17 12 17C14.761 17 17 14.761 17 12C17 9.239 14.761 7 12 7ZM12 15.2C10.232 15.2 8.8 13.768 8.8 12C8.8 10.232 10.232 8.8 12 8.8C13.768 8.8 15.2 10.232 15.2 12C15.2 13.768 13.768 15.2 12 15.2Z" fill="#1976D2"/>
  <path d="M18.45 6.75C18.45 7.44036 17.8904 8 17.2 8C16.5096 8 15.95 7.44036 15.95 6.75C15.95 6.05964 16.5096 5.5 17.2 5.5C17.8904 5.5 18.45 6.05964 18.45 6.75Z" fill="#1976D2"/>
</svg>
