<?xml version="1.0" encoding="UTF-8"?>
<svg width="24" height="24" viewBox="0 0 24 24" fill="none" xmlns="http://www.w3.org/2000/svg">
  <path d="M22.46 6C21.69 6.35 20.86 6.58 20 6.69C20.88 6.16 21.56 5.32 21.88 4.31C21.05 4.81 20.13 5.16 19.16 5.36C18.37 4.5 17.26 4 16 4C13.65 4 11.73 5.92 11.73 8.29C11.73 8.63 11.77 8.96 11.84 9.27C8.28 9.09 5.11 7.38 3 4.79C2.63 5.42 2.42 6.16 2.42 6.94C2.42 8.43 3.17 9.75 4.33 10.5C3.62 10.5 2.96 10.3 2.38 9.98C2.38 9.98 2.38 9.98 2.38 10.03C2.38 12.11 3.86 13.85 5.82 14.24C5.19 14.4 4.71 14.46 4.2 14.46C3.77 14.46 3.36 14.42 2.97 14.34C3.78 16.05 5.38 17.26 7.24 17.29C5.77 18.4 3.9 19 1.9 19C1.58 19 1.26 18.97 0.95 18.92C2.83 20.15 5.05 20.9 7.45 20.9C16 20.9 20.33 14.46 20.33 8.79C20.33 8.6 20.33 8.42 20.32 8.23C21.16 7.63 21.88 6.87 22.46 6Z" fill="#1976D2"/>
</svg>
